<?xml version="1.0" encoding="utf-8"?>
<!-- Generator: Adobe Illustrator 26.0.3, SVG Export Plug-In . SVG Version: 6.00 Build 0)  -->
<svg version="1.1" id="Layer_1" xmlns="http://www.w3.org/2000/svg" xmlns:xlink="http://www.w3.org/1999/xlink" x="0px" y="0px"
	 viewBox="0 0 686.98 147.34" style="enable-background:new 0 0 686.98 147.34;" xml:space="preserve">
<style type="text/css">
	.st0{fill:#FFFFFF;}
	.st1{fill:#FFFFFE;}
</style>
<g>
	<path class="st0" d="M306.18,99.71c1.15-7.87,2.3-15.73,3.46-23.71c-3.61,0-7.14,0-10.84,0c5.1-10.57,10.13-20.99,15.16-31.41
		c0.05,0.02,0.11,0.03,0.16,0.05c-1.16,7.94-2.32,15.88-3.49,23.94c3.65,0,7.18,0,10.85,0c-5.07,10.49-10.07,20.85-15.07,31.21
		C306.33,99.77,306.25,99.74,306.18,99.71z"/>
</g>
<g>
	<g>
		<path class="st0" d="M49.13,79.2c2.76-9.01,5.54-17.96,8.21-26.95c0.5-1.68,1.17-2.45,3.06-2.32c2.73,0.19,5.5,0.14,8.24,0.01
			c1.6-0.07,2.27,0.45,2.75,2.03c2.77,9.11,5.68,18.18,8.62,27.49c1.23-1.89,1.58-3.87,2.2-5.72c2.45-7.23,4.83-14.48,7.16-21.74
			c0.47-1.46,1.08-2.12,2.76-2.06c4.16,0.14,8.32,0.09,12.49,0.03c1.48-0.02,1.87,0.26,1.32,1.82C99.64,69.88,93.41,88,87.21,106.14
			c-0.46,1.35-1.18,1.74-2.55,1.7c-3.08-0.1-6.16-0.13-9.24,0.01c-1.68,0.08-2.25-0.62-2.7-2.11c-2.63-8.56-5.37-17.09-8.09-25.68
			c-1.14,0.4-0.99,1.49-1.24,2.24c-2.52,7.81-5.03,15.64-7.4,23.5c-0.48,1.58-1.15,2.1-2.76,2.04c-3.08-0.12-6.16-0.08-9.24-0.01
			c-1.08,0.02-1.67-0.33-2.02-1.35c-6.39-18.51-12.79-37.01-19.19-55.51c-0.08-0.23-0.06-0.48-0.12-0.98
			c5.11,0,10.16,0.01,15.21-0.01c1.32-0.01,1.31,1.05,1.58,1.87c2.92,8.65,5.83,17.3,8.74,25.95C48.35,78.25,48.3,78.81,49.13,79.2z
			"/>
		<path class="st0" d="M260.23,80.4c6.3-17.28,12.44-33.94,18.4-50.65c0.85-2.37,1.94-3.18,4.43-3.03c3.9,0.24,7.83,0.18,11.73,0.02
			c2.28-0.09,2.37,0.58,1.64,2.49c-7.74,20.31-15.41,40.64-23.1,60.97c-1.97,5.2-3.98,10.38-5.84,15.62
			c-0.57,1.62-1.41,2.14-3.1,2.05c-2.82-0.15-5.66-0.16-8.49,0c-1.79,0.1-2.61-0.53-3.24-2.21c-7.62-20.35-15.32-40.68-23-61.01
			c-2.02-5.35-3.98-10.73-6.09-16.06c-0.61-1.54-0.23-1.84,1.28-1.82c4.49,0.06,8.99,0.12,13.48-0.03c1.75-0.06,2.43,0.59,3,2.15
			c5.87,16.23,11.81,32.42,17.74,48.63C259.37,78.26,259.68,79.01,260.23,80.4z"/>
		<path class="st0" d="M405.59,52.41c4.77-2.02,9.79-2.55,14.85-1.64c12.65,2.26,21.55,12.65,21.86,25.72
			c0.23,9.8,0.02,19.62,0.09,29.43c0.01,1.62-0.63,1.94-2.06,1.91c-3.83-0.07-7.66-0.11-11.48,0.01c-1.8,0.06-2.23-0.59-2.22-2.29
			c0.07-9.39,0.09-18.79,0.01-28.18c-0.06-6.6-4.37-11.22-10.39-11.39c-6.06-0.17-10.93,4.4-10.97,10.46
			c-0.06,9.56-0.09,19.12,0.04,28.68c0.03,2.26-0.65,2.83-2.81,2.72c-3.65-0.18-7.32-0.11-10.98-0.02c-1.55,0.04-1.98-0.48-1.97-2
			c0.04-24.94,0.04-49.88,0-74.81c0-1.32,0.46-1.91,1.67-2.29c4.03-1.29,8.06-2.59,12.04-4.03c1.84-0.67,2.04,0.05,2.03,1.63
			c-0.05,7.73-0.03,15.46-0.01,23.19C405.27,50.43,405.08,51.36,405.59,52.41z"/>
		<path class="st0" d="M332.4,79.03c-0.01-12.63,7.74-23.7,19.55-27.94c11.58-4.15,24.84-0.48,32.79,8.96
			c1.26,1.49,1.22,2.27-0.47,3.35c-3.09,1.95-6.08,4.07-9,6.26c-1.29,0.97-1.99,1.07-3.21-0.24c-4.59-4.89-11.56-5.75-17.33-2.36
			c-5.32,3.12-7.91,9.73-6.17,15.75c1.81,6.24,7.5,10.38,14.06,10.12c3.93-0.16,7.26-1.78,9.8-4.77c0.93-1.09,1.48-1.1,2.58-0.31
			c3.24,2.32,6.53,4.58,9.88,6.74c1.34,0.87,1.33,1.48,0.35,2.65c-7.96,9.46-18.1,13.21-30.07,10.46
			c-11.79-2.71-19.12-10.48-22.1-22.24C332.52,83.35,332.46,81.19,332.4,79.03z"/>
		<path class="st0" d="M512.48,92.33c0.21-5.34-0.48-11.58,0.89-17.75c3.09-13.85,15.78-24.86,29.94-26.03
			c2.3-0.19,3.26,0.2,3.09,2.78c-0.24,3.56-0.15,7.14-0.02,10.71c0.06,1.61-0.52,2.11-2.03,2.3c-8.22,1.06-13.34,5.75-15.63,13.63
			c-0.56,1.94-0.54,3.94-0.55,5.93c-0.03,7.23-0.06,14.45,0.02,21.68c0.02,1.71-0.45,2.33-2.23,2.27
			c-3.74-0.13-7.49-0.15-11.22,0.01c-1.97,0.08-2.36-0.66-2.31-2.44C512.56,101.34,512.48,97.27,512.48,92.33z"/>
		<path class="st1" d="M195.44,26.78c7.73,0,15.46,0.1,23.19-0.06c2.47-0.05,3.1,0.73,2.96,3.08c-0.2,3.47-0.1,6.97-0.03,10.46
			c0.03,1.4-0.23,2.11-1.87,2.1c-16.29-0.05-32.58-0.04-48.87-0.01c-1.21,0-1.82-0.29-1.8-1.66c0.06-4.07,0.09-8.14-0.01-12.2
			c-0.05-1.83,1.04-1.71,2.25-1.71C179.31,26.78,187.38,26.78,195.44,26.78z"/>
		<path class="st0" d="M195.15,75.16c-7.98,0-15.96-0.05-23.93,0.04c-1.76,0.02-2.28-0.51-2.22-2.24c0.12-3.81,0.08-7.64,0.02-11.45
			c-0.02-1.36,0.38-1.89,1.83-1.89c16.29,0.04,32.58,0.04,48.87,0c1.41,0,1.88,0.47,1.85,1.87c-0.07,3.82-0.1,7.64,0.01,11.45
			c0.05,1.73-0.49,2.28-2.24,2.26C211.27,75.12,203.21,75.16,195.15,75.16z"/>
		<path class="st1" d="M195.16,107.81c-7.9,0-15.8-0.07-23.69,0.05c-2.01,0.03-2.55-0.6-2.48-2.53c0.14-3.65,0.08-7.31,0.02-10.96
			c-0.02-1.37,0.38-1.88,1.83-1.88c16.29,0.04,32.59,0.04,48.88,0c1.43,0,1.86,0.49,1.84,1.87c-0.07,3.74-0.14,7.48,0.02,11.21
			c0.09,2.02-0.76,2.28-2.48,2.27C211.12,107.77,203.14,107.81,195.16,107.81z"/>
		<path class="st0" d="M585.52,104.86c-3.82,1.45-7.77,2.56-11.97,2.57c-15.7,0.02-28.09-11.3-29.52-27.01
			c-1.32-14.52,9.29-27.96,24.23-30.69c16.43-3,32.25,8.75,33.75,25.94c0.88,9.97,1.2,20.16-0.32,30.11
			c-1.65,10.86-8.2,18.4-18.54,22.19c-10.44,3.83-20.09,1.92-28.81-4.93c-1.15-0.9-1.13-1.51-0.12-2.52c2.71-2.7,5.37-5.46,7.92-8.3
			c1.14-1.27,1.86-1.49,3.42-0.4c6.96,4.86,16.59,2.04,19.89-5.66C585.61,105.8,585.92,105.45,585.52,104.86z M559.66,78.41
			c0.02,7.38,6.17,13.49,13.54,13.44c7.36-0.04,13.54-6.3,13.44-13.59c-0.11-7.47-6.15-13.42-13.57-13.38
			C565.63,64.94,559.64,70.98,559.66,78.41z"/>
		<path class="st0" d="M144.56,105.66c-16.45,5.17-28.64,2.26-36.87-8.74c-7.66-10.24-8.08-23.93-0.96-34.5
			c4.16-6.17,9.92-10.2,17.13-12.06c7.09-1.83,13.98-0.93,20.9,2.24c-0.81-3.15,0.76-3.4,3.01-3.3c3.57,0.15,7.15,0.08,10.73,0.02
			c1.29-0.02,1.72,0.4,1.71,1.71c-0.04,18.36-0.03,36.72,0,55.08c0,1.3-0.41,1.74-1.71,1.72c-4.07-0.06-8.16-0.13-12.22,0.03
			C144.42,107.92,144.66,106.74,144.56,105.66z M131.37,65.01c-7.75,0.13-14.05,6.35-14.09,13.93c-0.05,7.67,6.39,14.02,14.23,14.02
			c7.62,0,13.79-6.36,13.74-14.15C145.19,71.28,138.77,64.89,131.37,65.01z"/>
		<path class="st0" d="M489.35,105.62c-16.11,5.44-28.94,2.26-37.2-9.12c-7.82-10.76-7.64-25.11,0.53-35.72
			c6.53-8.47,19.83-15.53,36.66-8.35c-0.81-3.59,1.55-3.14,3.71-3.11c3.33,0.06,6.66,0.06,9.98-0.01c1.3-0.02,1.92,0.21,1.92,1.74
			c-0.05,18.36-0.04,36.73-0.01,55.09c0,1.32-0.44,1.71-1.73,1.69c-3.83-0.07-7.65-0.1-11.48,0.01
			C490.06,107.89,488.96,107.66,489.35,105.62z M476.35,65.01c-7.8-0.01-14.29,6.33-14.31,13.97c-0.01,7.67,6.45,13.99,14.28,13.97
			c7.55-0.02,13.66-6.25,13.67-13.94C490,71.39,483.79,65.02,476.35,65.01z"/>
		<path class="st0" d="M622.75,86.47c4.22,7.01,13.84,8.72,20.2,3.69c1.67-1.32,2.47-1.08,3.79,0.27c2.49,2.56,5.13,4.98,7.79,7.37
			c1.03,0.93,1.2,1.5,0.05,2.48c-9.28,7.93-19.74,10.27-31.09,5.61c-11.41-4.68-17.68-13.57-18.16-25.96
			c-0.61-15.78,10.48-28.2,26.5-30.18c14.08-1.74,27.9,8.44,31.21,22.99c0.93,4.09,0.63,8.26,0.7,12.41c0.03,1.91-1.36,1.3-2.27,1.3
			c-11.98,0.03-23.96,0.02-35.94,0.02C624.7,86.47,623.88,86.47,622.75,86.47z M646.12,71.29c-4.86-8.62-17.79-8.68-23.36,0
			C630.71,71.29,638.37,71.29,646.12,71.29z"/>
	</g>
	<g>
		<path class="st0" d="M306.18,99.71c1.15-7.87,2.3-15.73,3.46-23.71c-3.61,0-7.14,0-10.84,0c5.1-10.57,10.13-20.99,15.16-31.41
			c0.05,0.02,0.11,0.03,0.16,0.05c-1.16,7.94-2.32,15.88-3.49,23.94c3.65,0,7.18,0,10.85,0c-5.07,10.49-10.07,20.85-15.07,31.21
			C306.33,99.77,306.25,99.74,306.18,99.71z"/>
	</g>
	<g>
		<path class="st0" d="M169.01,62.64c0.49-3.39,0.99-6.78,1.49-10.22c-1.56,0-3.08,0-4.67,0c2.2-4.56,4.37-9.05,6.53-13.54
			c0.02,0.01,0.05,0.01,0.07,0.02c-0.5,3.42-1,6.84-1.51,10.31c1.57,0,3.09,0,4.67,0c-2.18,4.52-4.34,8.99-6.49,13.45
			C169.07,62.66,169.04,62.65,169.01,62.64z"/>
	</g>
	<g>
		<path class="st0" d="M169.01,96.03c0.49-3.39,0.99-6.78,1.49-10.22c-1.56,0-3.08,0-4.67,0c2.2-4.56,4.37-9.05,6.53-13.54
			c0.02,0.01,0.05,0.01,0.07,0.02c-0.5,3.42-1,6.84-1.51,10.31c1.57,0,3.09,0,4.67,0c-2.18,4.52-4.34,8.99-6.49,13.45
			C169.07,96.05,169.04,96.04,169.01,96.03z"/>
	</g>
</g>
</svg>
