<?xml version="1.0" encoding="utf-8"?>
<!-- Generator: Adobe Illustrator 26.5.3, SVG Export Plug-In . SVG Version: 6.00 Build 0)  -->
<svg version="1.1" id="Layer_1" xmlns="http://www.w3.org/2000/svg" xmlns:xlink="http://www.w3.org/1999/xlink" x="0px" y="0px"
	 viewBox="0 0 136.06 68.03" style="enable-background:new 0 0 136.06 68.03;" xml:space="preserve">
<style type="text/css">
	.st0{fill:#FFFFFF;}
</style>
<g>
	<g>
		<g>
			<g id="Vestel_Logo_00000016075471310462174880000007639623329506979978_">
				<polygon class="st0" points="114.07,11.03 123.39,11.03 123.39,35.09 133.58,35.09 133.58,38.98 114.07,38.98 				"/>
				<polygon class="st0" points="93.45,11.03 111.99,11.03 111.99,14.32 102.38,14.32 102.38,23.64 111.12,23.64 111.12,26.94 
					102.38,26.94 102.38,35.09 112.57,35.09 112.57,38.98 93.45,38.98 				"/>
				<polygon class="st0" points="69.43,11.03 91.84,11.03 91.84,14.62 85.24,14.62 85.24,38.98 76.32,38.98 76.32,14.62 
					69.43,14.62 				"/>
				<path class="st0" d="M68.31,10.83h-7.58c0,0-9,0.32-9.69,8.69c-0.69,8.37,8.64,8.19,10.38,11.76c1.11,2.28-1.61,4.03-3.92,4.03
					h-6.25v3.87h10.59c0,0,11.1-0.6,9.54-10.12c-1.01-6.14-7.79-5.19-10.06-9.32c-2.28-4.13,1.69-5.3,2.11-5.3h4.82L68.31,10.83z"/>
				<polygon class="st0" points="30.03,11.03 48.85,11.03 48.85,14.32 38.95,14.32 38.95,23.64 47.69,23.64 47.69,26.94 
					38.95,26.94 38.95,35.09 49.44,35.09 49.44,38.98 30.03,38.98 				"/>
				<polygon class="st0" points="24.28,11.02 18.27,30.52 12.07,11.02 2.48,11.02 12.32,38.97 19.49,38.97 29.08,11.02 				"/>
			</g>
		</g>
	</g>
	<g>
		<path class="st0" d="M46.73,47.53v9.5h-2.15v-5.59l0.09-1.59l-0.37,1.82l-1.6,4.6H40.6l-1.59-4.6l-0.36-1.82l0.09,1.59v5.59h-2.15
			v-9.5h3.02l1.92,6.34l0.13,0.76l0.13-0.76l1.92-6.34H46.73z"/>
		<path class="st0" d="M48.5,52.27c0-0.69,0.12-1.34,0.37-1.93c0.24-0.6,0.59-1.12,1.03-1.57c0.44-0.45,0.96-0.79,1.56-1.04
			c0.6-0.25,1.24-0.37,1.93-0.37c0.7,0,1.35,0.12,1.94,0.37c0.59,0.25,1.11,0.6,1.55,1.04c0.44,0.45,0.78,0.97,1.02,1.57
			s0.36,1.24,0.36,1.93c0,0.7-0.12,1.34-0.35,1.94c-0.23,0.6-0.57,1.12-1.01,1.57c-0.44,0.45-0.95,0.8-1.55,1.05
			c-0.6,0.25-1.25,0.37-1.97,0.37c-0.73,0-1.39-0.12-1.99-0.37c-0.6-0.25-1.11-0.6-1.54-1.05c-0.43-0.45-0.76-0.97-1-1.57
			C48.61,53.62,48.5,52.97,48.5,52.27z M50.74,52.27c0,0.54,0.11,1.03,0.33,1.47c0.22,0.44,0.53,0.79,0.93,1.05s0.86,0.39,1.38,0.39
			c0.52,0,0.98-0.13,1.38-0.39s0.71-0.61,0.93-1.05c0.22-0.44,0.33-0.93,0.33-1.47c0-0.54-0.11-1.03-0.33-1.47
			c-0.22-0.44-0.53-0.79-0.93-1.05s-0.86-0.39-1.38-0.39c-0.52,0-0.98,0.13-1.38,0.39s-0.71,0.61-0.93,1.05
			C50.85,51.24,50.74,51.73,50.74,52.27z"/>
		<path class="st0" d="M59.9,47.53h3.26c0.54,0,1.04,0.07,1.51,0.22c0.46,0.15,0.84,0.39,1.12,0.73c0.29,0.34,0.43,0.79,0.43,1.37
			c0,0.38-0.07,0.72-0.21,1.02s-0.33,0.54-0.56,0.73s-0.49,0.32-0.76,0.38c0.24,0.03,0.47,0.1,0.7,0.21
			c0.23,0.11,0.43,0.26,0.62,0.45c0.19,0.19,0.33,0.42,0.44,0.71c0.11,0.28,0.16,0.61,0.16,1c0,0.53-0.12,1-0.36,1.41
			c-0.24,0.41-0.58,0.72-1.04,0.95c-0.45,0.23-1.01,0.34-1.67,0.34H59.9V47.53z M62.06,51.34h0.87c0.25,0,0.47-0.05,0.64-0.14
			s0.3-0.22,0.39-0.38c0.09-0.17,0.13-0.36,0.13-0.57c0-0.39-0.11-0.65-0.33-0.79c-0.22-0.14-0.52-0.21-0.91-0.21h-0.79V51.34z
			 M62.06,55.31h0.98c0.31,0,0.56-0.05,0.75-0.14s0.34-0.23,0.43-0.4c0.09-0.17,0.14-0.38,0.14-0.63c0-0.38-0.12-0.67-0.36-0.85
			c-0.24-0.18-0.57-0.27-1-0.27h-0.94V55.31z"/>
		<path class="st0" d="M68.33,47.53h2.15v9.5h-2.15V47.53z"/>
		<path class="st0" d="M72.57,47.53h2.15v7.62h3.45v1.89h-5.6V47.53z"/>
		<path class="st0" d="M80.01,47.53h2.15v9.5h-2.15V47.53z"/>
		<path class="st0" d="M85.84,49.41h-2.27v-1.89h6.68v1.89h-2.26v7.62h-2.15V49.41z"/>
		<path class="st0" d="M94.54,53.61l-3.28-6.08h2.61l1.73,3.62l1.74-3.62h2.6l-3.26,6.08v3.42h-2.15V53.61z"/>
	</g>
</g>
</svg>
