<?xml version="1.0" encoding="UTF-8"?>
<svg xmlns="http://www.w3.org/2000/svg" version="1.1" viewBox="0 0 885 356.3031921">
  <defs>
    <style>
      .cls-1 {
        fill: #3c3c3b;
      }
    </style>
  </defs>
  <!-- Generator: Adobe Illustrator 28.7.0, SVG Export Plug-In . SVG Version: 1.2.0 Build 136)  -->
  <g>
    <g id="Logos">
      <g>
        <g>
          <g>
            <path class="cls-1" d="M268.1570068,138.6125322c.0022854,0,.00419-.0019589.00419-.0042444,0-8.2844396-6.7157043-15.0001439-14.9998174-15.0001439h-22.3956027c-3.4623293,0-6.5789045,1.2698871-9.0023391,3.6933217l-11.3035572,11.3035572c-.0026119.0029384-.0009795.0075093.0029384.0075093h57.694188Z"/>
            <path class="cls-1" d="M195.4522272,176.1227139c-.0022854,0-.0042444.0019589-.0042444.0042444,0,8.2841131,6.7157587,15.0001439,15.0001439,15.0001439h22.3953306c3.4623293,0,6.6935573-1.3845943,9.1186244-3.808029l11.1875985-11.18885c.0026119-.0029384.000653-.0075093-.0032649-.0075093h-57.694188Z"/>
            <path class="cls-1" d="M210.4569419,149.5778447c-.0019589-.0016325-.0026119-.0026119-.0045709-.0042444v-10.9506204c0-.0039179-.0045709-.0055503-.0071284-.0029384l-11.187272,11.18885c-2.4234346,2.4234346-3.8099879,5.654717-3.8099879,9.1169919v5.6521051c.0016325.0016325.0029384.0026119.0042444.0042444h57.7003914c.001578.0019589.0025575.0026119.00419.0045709v11.5251359c0,.0039179.0045709.0058768.0075093.0032649l11.3035572-11.3035572c2.4234346-2.4234346,3.6933217-5.5400098,3.6933217-9.0022847v-6.2272736c-.001578-.001306-.0025575-.0026119-.00419-.0042444h-57.7000649Z"/>
          </g>
          <g>
            <path class="cls-1" d="M481.3166058,138.6118627c0-8.2818277-6.7137998-14.995573-14.9956274-14.995573h-22.399847c-3.4623293,0-6.5789045,1.2698871-9.0020126,3.6933217l-11.311393,11.3110665h57.7088801v-.0088153Z"/>
            <path class="cls-1" d="M412.4133253,149.8170373c-2.4234346,2.4234346-3.8099879,5.308963-3.8099879,8.4255382v4.6158768c0,15.5521315,12.7246642,28.2767957,28.2768501,28.2767957h29.4407909c8.2818277,0,14.9956274-6.7140718,14.9956274-14.995573v-.0088153h-44.4364183c-7.299688,0-13.2724618-5.9727738-13.2724618-13.2724074v-24.2377743l-11.1944004,11.1963593Z"/>
          </g>
          <g>
            <path class="cls-1" d="M285.9594705,191.1086933h10.8408105c7.0034518,0,13.2027016-2.5273676,18.1401721-7.5782938l7.2322676-7.3478999h-51.1391174c0,8.2434106,6.6824566,14.9261937,14.9258672,14.9261937Z"/>
            <path class="cls-1" d="M336.9837174,124.7525331c-.0033193-.672354-.8163366-1.0067897-1.291762-.5313643l-10.8473948,10.8473948c-1.701454,1.7015084-2.6580185,4.0087122-2.6595965,6.4149516l-.0044076,8.0661803h-32.6874184v-24.684142c0-.6741497-.8150306-1.0117415-1.291762-.5350645l-10.9751072,10.9751616c-1.7016716,1.7016716-2.657692,4.0096372-2.657692,6.4161487v7.8278962s-.041682.744563.121237,1.8978384c.3349799,2.7652708,1.3859003,4.9286552,2.7942741,6.6104653,2.6241722,3.3508326,7.5933124,6.4146251,17.0215047,6.4146251h27.6749638v11.7098754l7.5766613-7.6900081c4.8224368-4.9358925,7.3478999-11.1370468,7.3478999-17.911465l-.1214003-25.8284933Z"/>
          </g>
          <g>
            <path class="cls-1" d="M341.2655706,159.1035325v32.0317154h.0084888c8.2385132,0,14.9167254-6.6785387,14.9167254-14.9170519v-37.3211433l-11.2514275,11.2514275c-2.4107015,2.4107015-3.6737867,5.5090476-3.6737867,8.9550523Z"/>
            <path class="cls-1" d="M375.8703624,123.971512h-.1625926c-3.0999242,0-5.9704883,1.379044-8.3812442,3.7897999l-11.1357408,11.1357408h19.6795776c7.261543,0,13.2027016,5.9411041,13.2027016,13.2023751v39.0358202h.0084888c8.2384588,0,14.9167254-6.6785387,14.9167254-14.9170519v-24.1187683c0-15.4703999-12.6575158-28.1279157-28.1279157-28.1279157Z"/>
          </g>
          <g>
            <path class="cls-1" d="M498.2943144,128.5570837c-.5895144-1.063853-1.4439041-1.8860399-2.5332873-2.4709125-1.0777785-.5596325-2.2013953-.8407543-3.3113767-.8407543-1.1656835,0-2.2501347.2811218-3.3717207.8407543-1.0455757.5848726-1.9298473,1.4070595-2.5329972,2.4709125-.6127236,1.0708158-.9306901,2.1671617-.9306901,3.304704,0,1.1584306.3179664,2.266091.9098018,3.3116668.5871935,1.0525385,1.4578297,1.8721144,2.5263245,2.4642398,1.0545693.5735581,2.2063273.8909443,3.3992816.8909443,1.1790288,0,2.2750846-.3173862,3.3551841-.8909443,1.0754576-.5921254,1.8999655-1.4117013,2.5216827-2.4642398.5802307-1.0455757.9074808-2.1532362.9074808-3.3116668,0-1.1375423-.3272501-2.2338882-.9396836-3.304704ZM497.3270698,134.5998964c-.4766595.902839-1.1836706,1.6005664-2.0725841,2.0682324-.8935553.4975478-1.8468743.7229675-2.8048352.7229675-.9904538,0-1.9301375-.2254196-2.8283346-.7229675-.9071907-.467666-1.5889618-1.1653934-2.0955032-2.0682324-.5343925-.845106-.7601022-1.7662223-.7601022-2.7381087,0-.9463563.2582027-1.8677627.7601022-2.756386.5065414-.9098018,1.2112316-1.5799682,2.1187124-2.049665.9002279-.4723078,1.8468743-.7096222,2.8051254-.7096222.9301098,0,1.8489052.2373144,2.7520343.7096222.8955861.4696968,1.6142018,1.1398632,2.1253851,2.049665.5204669.8886233.7554604,1.8100297.7554604,2.756386,0,.9718864-.2349934,1.8930027-.7554604,2.7381087Z"/>
            <path class="cls-1" d="M490.3045471,134.6804784v-5.558137h2.2185283c1.1848554,0,2.2742101.3580465,2.2742101,1.6222159,0,.6918131-.3418599,1.1926249-1.033673,1.463264l1.399489,2.4807504h-.9543589l-1.2483066-2.2981662c-.1511824.0161865-.302041.0239561-.4613166.0239561h-1.3755329v2.2742101l-.8190394-.0080933ZM492.5628944,131.6510039c1.0893547,0,1.3913957-.2942715,1.3913957-.9064467,0-.5804496-.3259971-.8588583-1.4551707-.8588583h-1.3755329v1.765305h1.4393079Z"/>
          </g>
        </g>
        <g>
          <g>
            <path class="cls-1" d="M629.8743437,210.0176312c-.5184263.191766-1.0260422.4042127-1.5345982.6152493l-7.1992163,7.1996863c-.7097223.7092523-1.2648098,1.5059273-1.748455,2.3336233.8009052-.3666115,1.6168508-.7087823,2.449012-1.0241622,9.0696401-3.8268603,20.0715109-2.609992,26.8047075,3.4738792l10.1006175-10.1006175c-8.081669-5.9029155-19.6329871-6.0631906-28.8720675-2.4976585Z"/>
            <path class="cls-1" d="M618.0003605,223.7815438c-.6749412,3.5815126.3682566,7.4234133,3.1401687,10.1955605,4.4580901,4.4580901,11.6859773,4.4580901,16.1443024,0l10.3513703-10.3516054c-8.5921051-7.1959262-20.4000512-5.251005-29.6358415.1560449Z"/>
            <path class="cls-1" d="M642.4479439,196.5249171l-10.4011919,10.4009569c9.7194355-2.5286795,20.0642256-1.7240142,27.8295747,4.4595002l12.884985-12.884985c-9.0736352-4.2761944-20.0367298-4.5723037-30.3133678-1.9754721Z"/>
            <path class="cls-1" d="M685.0709986,182.9795613c7.9735656-16.0970659,5.314457-36.2329688-8.0457129-49.5931387l-4.9666461-4.9666461c-3.3533204-3.3530854-7.9498299-4.9666461-13.1648788-4.9666461l-24.0922522-.00141,26.0792397,26.0787697c7.8544169,7.8544169,7.8544169,20.7069708,0,28.5613877l-3.881617,3.881852c9.3304983-1.4495256,18.9169196-1.1604665,28.0718673,1.0058316Z"/>
            <path class="cls-1" d="M653.7950406,185.1778204l-8.2668548,8.2670898c9.9107315-1.6459917,20.1173373-.6787013,28.5898236,3.6990163l2.9072764-2.9075114c2.8111584-2.8111584,5.1081206-5.9414567,6.9750192-9.2531808-9.9074414-2.1117764-20.2848976-2.0017929-30.2052644.1945861Z"/>
            <path class="cls-1" d="M596.8003442,129.1638099l-32.1076492,32.1076492c-4.4359994,4.4359994-4.4613802,11.6206452-.0564018,16.0876656,4.4489248,4.5116718,11.7207584,4.5370526,16.2009392.0568718l53.9642761-53.9642761h-24.34089c-5.2150489,0-9.9349373,1.9867524-13.6602743,5.7120895Z"/>
          </g>
          <g>
            <path class="cls-1" d="M549.9822054,150.754761c.5184263-.191766,1.0260422-.4042127,1.5345982-.6152493l7.1992163-7.1996863c.7097223-.7092523,1.2648098-1.5059273,1.748455-2.3336233-.8009052.3666115-1.6168508.7087823-2.449012,1.0241622-9.0696401,3.8268603-20.0715109,2.609992-26.8047075-3.4738792l-10.1006175,10.1006175c8.081669,5.9029155,19.6329871,6.0631906,28.8720675,2.4976585Z"/>
            <path class="cls-1" d="M561.8561886,136.9908484c.6749412-3.5815126-.3682566-7.4234133-3.1401687-10.1955605-4.4580901-4.4580901-11.6859773-4.4580901-16.1443024,0l-10.3513703,10.3516054c8.5921051,7.1959262,20.4000512,5.251005,29.6358415-.1560449Z"/>
            <path class="cls-1" d="M537.4086052,164.2474751l10.4011919-10.4009569c-9.7194355,2.5286795-20.0642256,1.7240142-27.8295747-4.4595002l-12.884985,12.884985c9.0736352,4.2761944,20.0367298,4.5723037,30.3133678,1.9754721Z"/>
            <path class="cls-1" d="M494.7855505,177.7928308c-7.9735656,16.0970659-5.314457,36.2329688,8.0457129,49.5931387l4.9666461,4.9666461c3.3533204,3.3530854,7.9498299,4.9666461,13.1648788,4.9666461l24.0922522.00141-26.0792397-26.0787697c-7.8544169-7.8544169-7.8544169-20.7069708,0-28.5613877l3.881617-3.881852c-9.3304983,1.4495256-18.9169196,1.1604665-28.0718673-1.0058316Z"/>
            <path class="cls-1" d="M526.0615085,175.5945717l8.2668548-8.2670898c-9.9107315,1.6459917-20.1173373.6787013-28.5898236-3.6990163l-2.9072764,2.9075114c-2.8111584,2.8111584-5.1081206,5.9414567-6.9750192,9.2531808,9.9074414,2.1117764,20.2848976,2.0017929,30.2052644-.1945861Z"/>
            <path class="cls-1" d="M583.0562049,231.6085823l32.1076492-32.1076492c4.4359994-4.4359994,4.4613802-11.6206452.0564018-16.0876656-4.4489248-4.5116718-11.7207584-4.5370526-16.2009392-.0568718l-53.9642761,53.9642761h24.34089c5.2150489,0,9.9349373-1.9867524,13.6602743-5.7120895Z"/>
          </g>
        </g>
        <g>
          <path class="cls-1" d="M353.2575452,206.661205c7.2810532,0,11.9065291,4.2401253,11.8633834,11.3921643l-.0427227,1.3705114h-19.3584732c.2999051,3.812052,2.6983,6.2531697,7.4092214,6.2531697,4.1115341,0,6.4672063-1.7131392,7.2383305-4.6686216h4.454162c-1.2850659,5.567914-5.6533594,8.4802507-11.6924925,8.4802507-7.4092214,0-11.8633834-4.2828481-11.8633834-11.3921643,0-7.152462,4.7540671-11.4353101,11.9919746-11.4353101ZM353.128954,210.4301113c-4.3682935,0-6.9380024,2.1412125-7.2379075,5.7388049h14.5616834c-.3426278-3.5975924-2.869614-5.7388049-7.3237759-5.7388049Z"/>
          <path class="cls-1" d="M367.7337832,207.4750519h4.1115341v2.697877c1.9275989-2.3983949,5.0112495-3.5117239,8.0949001-3.5117239,5.7388049,0,8.6938643,2.8264682,8.6938643,8.0944771v14.2190556h-4.1542569v-13.3197632c0-3.4262784-1.3705114-5.1394177-5.0966949-5.1394177-3.0836506,0-7.5378126,1.4991026-7.5378126,5.4393228v13.0198581h-4.1115341v-21.4996858Z"/>
          <path class="cls-1" d="M402.896283,206.661205c7.2810532,0,11.9065291,4.2401253,11.8633834,11.3921643l-.0427227,1.3705114h-19.3584732c.2999051,3.812052,2.6983,6.2531697,7.4092214,6.2531697,4.1115341,0,6.4672063-1.7131392,7.2383305-4.6686216h4.454162c-1.2850659,5.567914-5.6533594,8.4802507-11.6924925,8.4802507-7.4092214,0-11.8633834-4.2828481-11.8633834-11.3921643,0-7.152462,4.7540671-11.4353101,11.9919746-11.4353101ZM402.7676918,210.4301113c-4.3682935,0-6.9380024,2.1412125-7.2379075,5.7388049h14.5616834c-.3426278-3.5975924-2.869614-5.7388049-7.3237759-5.7388049Z"/>
          <path class="cls-1" d="M417.372521,207.5604973h4.1115341v2.6555773c2.3129495-2.9127597,6.3817609-3.6407381,9.5935797-2.9127597l-.5566645,3.8547748c-4.1115341-.8138469-9.0369152.5993872-9.0369152,4.925381v12.8912669h-4.1115341v-21.4142403Z"/>
          <path class="cls-1" d="M442.6851047,206.661205c3.6830378.0854455,7.2379075,1.9271759,7.4519441,3.6830378v-2.7837455h4.1115341v19.1017139c0,2.226658-.3426278,4.1542569-.9420151,5.6960822-1.4136571,3.3831327-4.5400304,5.0108265-10.022076,5.0108265-6.3813379,0-10.3642808-1.9703216-10.8782226-6.8098342h4.0683884c.5998102,1.9703216,2.4415406,3.0409279,6.8098342,3.0409279,5.2252861,0,6.8098342-2.1412125,6.8098342-5.7819506v-2.869191c-1.7985847,2.3125265-4.2828481,3.5544466-7.794995,3.5544466-6.7239657,0-10.9209453-3.9829429-10.9209453-10.9213683,0-6.8094112,4.4968847-11.0922592,11.3067189-10.9209453ZM450.1797716,218.3105517v-1.3277886c0-4.0256657-2.1412125-6.5526518-7.0234478-6.5526518-4.5400304,0-7.4523671,2.3983949-7.4523671,7.152039,0,4.925381,3.0409279,7.1097393,7.0238708,7.1097393,4.9681038,0,7.4519441-2.6983,7.4519441-6.3813379Z"/>
          <path class="cls-1" d="M458.7890365,235.913163l.9851608-3.4694242c2.9977821.8138469,4.8395126.642533,6.4240606-2.6551543l.7279784-1.5418253c.2140367-.5566645.2140367-.9851608-.0427227-1.4563798l-10.3215581-19.3584732h4.8822353l7.9663089,15.7608809,7.2806302-15.7608809h4.6254759l-11.3067189,23.4700074c-1.8844531,3.9402202-3.5117239,5.7819506-7.152039,5.7819506-1.2423432,0-2.4842634-.1285912-4.0688114-.7707012Z"/>
        </g>
        <g>
          <g>
            <path class="cls-1" d="M268.1570068,138.6125322c.0022854,0,.00419-.0019589.00419-.0042444,0-8.2844396-6.7157043-15.0001439-14.9998174-15.0001439h-22.3956027c-3.4623293,0-6.5789045,1.2698871-9.0023391,3.6933217l-11.3035572,11.3035572c-.0026119.0029384-.0009795.0075093.0029384.0075093h57.694188Z"/>
            <path class="cls-1" d="M195.4522272,176.1227139c-.0022854,0-.0042444.0019589-.0042444.0042444,0,8.2841131,6.7157587,15.0001439,15.0001439,15.0001439h22.3953306c3.4623293,0,6.6935573-1.3845943,9.1186244-3.808029l11.1875985-11.18885c.0026119-.0029384.000653-.0075093-.0032649-.0075093h-57.694188Z"/>
            <path class="cls-1" d="M210.4569419,149.5778447c-.0019589-.0016325-.0026119-.0026119-.0045709-.0042444v-10.9506204c0-.0039179-.0045709-.0055503-.0071284-.0029384l-11.187272,11.18885c-2.4234346,2.4234346-3.8099879,5.654717-3.8099879,9.1169919v5.6521051c.0016325.0016325.0029384.0026119.0042444.0042444h57.7003914c.001578.0019589.0025575.0026119.00419.0045709v11.5251359c0,.0039179.0045709.0058768.0075093.0032649l11.3035572-11.3035572c2.4234346-2.4234346,3.6933217-5.5400098,3.6933217-9.0022847v-6.2272736c-.001578-.001306-.0025575-.0026119-.00419-.0042444h-57.7000649Z"/>
          </g>
          <g>
            <path class="cls-1" d="M481.3166058,138.6118627c0-8.2818277-6.7137998-14.995573-14.9956274-14.995573h-22.399847c-3.4623293,0-6.5789045,1.2698871-9.0020126,3.6933217l-11.311393,11.3110665h57.7088801v-.0088153Z"/>
            <path class="cls-1" d="M412.4133253,149.8170373c-2.4234346,2.4234346-3.8099879,5.308963-3.8099879,8.4255382v4.6158768c0,15.5521315,12.7246642,28.2767957,28.2768501,28.2767957h29.4407909c8.2818277,0,14.9956274-6.7140718,14.9956274-14.995573v-.0088153h-44.4364183c-7.299688,0-13.2724618-5.9727738-13.2724618-13.2724074v-24.2377743l-11.1944004,11.1963593Z"/>
          </g>
          <g>
            <path class="cls-1" d="M285.9594705,191.1086933h10.8408105c7.0034518,0,13.2027016-2.5273676,18.1401721-7.5782938l7.2322676-7.3478999h-51.1391174c0,8.2434106,6.6824566,14.9261937,14.9258672,14.9261937Z"/>
            <path class="cls-1" d="M336.9837174,124.7525331c-.0033193-.672354-.8163366-1.0067897-1.291762-.5313643l-10.8473948,10.8473948c-1.701454,1.7015084-2.6580185,4.0087122-2.6595965,6.4149516l-.0044076,8.0661803h-32.6874184v-24.684142c0-.6741497-.8150306-1.0117415-1.291762-.5350645l-10.9751072,10.9751616c-1.7016716,1.7016716-2.657692,4.0096372-2.657692,6.4161487v7.8278962s-.041682.744563.121237,1.8978384c.3349799,2.7652708,1.3859003,4.9286552,2.7942741,6.6104653,2.6241722,3.3508326,7.5933124,6.4146251,17.0215047,6.4146251h27.6749638v11.7098754l7.5766613-7.6900081c4.8224368-4.9358925,7.3478999-11.1370468,7.3478999-17.911465l-.1214003-25.8284933Z"/>
          </g>
          <g>
            <path class="cls-1" d="M341.2655706,159.1035325v32.0317154h.0084888c8.2385132,0,14.9167254-6.6785387,14.9167254-14.9170519v-37.3211433l-11.2514275,11.2514275c-2.4107015,2.4107015-3.6737867,5.5090476-3.6737867,8.9550523Z"/>
            <path class="cls-1" d="M375.8703624,123.971512h-.1625926c-3.0999242,0-5.9704883,1.379044-8.3812442,3.7897999l-11.1357408,11.1357408h19.6795776c7.261543,0,13.2027016,5.9411041,13.2027016,13.2023751v39.0358202h.0084888c8.2384588,0,14.9167254-6.6785387,14.9167254-14.9170519v-24.1187683c0-15.4703999-12.6575158-28.1279157-28.1279157-28.1279157Z"/>
          </g>
          <g>
            <path class="cls-1" d="M498.2943144,128.5570837c-.5895144-1.063853-1.4439041-1.8860399-2.5332873-2.4709125-1.0777785-.5596325-2.2013953-.8407543-3.3113767-.8407543-1.1656835,0-2.2501347.2811218-3.3717207.8407543-1.0455757.5848726-1.9298473,1.4070595-2.5329972,2.4709125-.6127236,1.0708158-.9306901,2.1671617-.9306901,3.304704,0,1.1584306.3179664,2.266091.9098018,3.3116668.5871935,1.0525385,1.4578297,1.8721144,2.5263245,2.4642398,1.0545693.5735581,2.2063273.8909443,3.3992816.8909443,1.1790288,0,2.2750846-.3173862,3.3551841-.8909443,1.0754576-.5921254,1.8999655-1.4117013,2.5216827-2.4642398.5802307-1.0455757.9074808-2.1532362.9074808-3.3116668,0-1.1375423-.3272501-2.2338882-.9396836-3.304704ZM497.3270698,134.5998964c-.4766595.902839-1.1836706,1.6005664-2.0725841,2.0682324-.8935553.4975478-1.8468743.7229675-2.8048352.7229675-.9904538,0-1.9301375-.2254196-2.8283346-.7229675-.9071907-.467666-1.5889618-1.1653934-2.0955032-2.0682324-.5343925-.845106-.7601022-1.7662223-.7601022-2.7381087,0-.9463563.2582027-1.8677627.7601022-2.756386.5065414-.9098018,1.2112316-1.5799682,2.1187124-2.049665.9002279-.4723078,1.8468743-.7096222,2.8051254-.7096222.9301098,0,1.8489052.2373144,2.7520343.7096222.8955861.4696968,1.6142018,1.1398632,2.1253851,2.049665.5204669.8886233.7554604,1.8100297.7554604,2.756386,0,.9718864-.2349934,1.8930027-.7554604,2.7381087Z"/>
            <path class="cls-1" d="M490.3045471,134.6804784v-5.558137h2.2185283c1.1848554,0,2.2742101.3580465,2.2742101,1.6222159,0,.6918131-.3418599,1.1926249-1.033673,1.463264l1.399489,2.4807504h-.9543589l-1.2483066-2.2981662c-.1511824.0161865-.302041.0239561-.4613166.0239561h-1.3755329v2.2742101l-.8190394-.0080933ZM492.5628944,131.6510039c1.0893547,0,1.3913957-.2942715,1.3913957-.9064467,0-.5804496-.3259971-.8588583-1.4551707-.8588583h-1.3755329v1.765305h1.4393079Z"/>
          </g>
        </g>
      </g>
    </g>
  </g>
</svg>