<svg width="827" height="134" viewBox="0 0 827 134" fill="none" xmlns="http://www.w3.org/2000/svg">
<g clip-path="url(#clip0_1_396)">
<path d="M121.83 68.59C118.62 65.38 114.65 63.24 110.45 61.83C110.38 61.8 110.3 61.78 110.23 61.75H110.22C108.55 61.2 106.84 60.76 105.13 60.42C104.96 60.39 104.79 60.35 104.62 60.32C105.03 60.14 105.44 59.95 105.84 59.76C105.93 59.72 106.02 59.68 106.11 59.63C111.82 56.95 117.33 53.66 121.31 49.67C129.04 41.94 132.15 33.56 132.3 26.08C132.44 18.6 129.61 12 125.45 7.85002C117.13 -0.469975 99.09 -3.46998 83.63 11.99C81.64 13.98 79.82 16.36 78.17 18.95C76.52 21.54 75.03 24.35 73.69 27.22C73.48 27.68 73.26 28.14 73.06 28.61C73.04 28.66 73.02 28.71 72.99 28.76C72.8 29.18 72.62 29.61 72.43 30.03C72.43 30.04 72.42 30.05 72.41 30.07C71.38 32.47 70.43 34.93 69.55 37.37C69.53 37.43 69.51 37.48 69.49 37.53C69.32 37.09 69.13 36.66 68.94 36.25C66.94 31.9 63.77 27.9 59.05 26.25C58.42 26.03 57.78 25.86 57.13 25.73C53.86 25.1 50.46 25.7 47.06 27.33L36.52 16.79L30.09 23.22L39.43 32.56C38.11 33.69 36.75 34.96 35.36 36.35L35.26 36.45C35.2 36.51 35.13 36.58 35.07 36.64C34.91 36.8 34.75 36.96 34.59 37.13C33.34 38.41 32.21 39.65 31.19 40.87L21.81 31.49L15.38 37.92L26.05 48.59C24.22 52.61 23.83 56.64 25.2 60.42C26.88 65.07 30.83 68.22 35.18 70.2C35.49 70.34 35.81 70.48 36.14 70.61C34.65 71.15 33.16 71.72 31.68 72.31C31.33 72.45 30.98 72.59 30.63 72.74C29.15 73.35 27.68 73.99 26.25 74.66C25.96 74.8 25.66 74.94 25.37 75.08C25.24 75.14 25.12 75.2 25 75.26C24.23 75.64 23.46 76.02 22.7 76.42C22.59 76.48 22.48 76.53 22.38 76.59C21.42 77.1 20.49 77.62 19.57 78.17C19.03 78.49 18.5 78.81 17.98 79.14C17.33 79.55 16.7 79.98 16.08 80.41C14.22 81.71 12.51 83.11 11.01 84.6C10.77 84.84 10.53 85.09 10.29 85.33C10.18 85.44 10.08 85.56 9.97004 85.67C9.85004 85.8 9.72004 85.93 9.60004 86.07C9.48004 86.2 9.37004 86.33 9.25004 86.46C9.15004 86.58 9.04004 86.69 8.94004 86.81C8.82004 86.95 8.71004 87.08 8.59004 87.22C8.50004 87.33 8.40004 87.44 8.30004 87.55C8.18004 87.69 8.07004 87.83 7.96004 87.97C7.87004 88.08 7.78004 88.19 7.69004 88.29C7.58004 88.43 7.47004 88.58 7.35004 88.72C7.27004 88.82 7.18004 88.93 7.10004 89.04C6.99004 89.19 6.88004 89.33 6.78004 89.47C6.70004 89.57 6.62004 89.68 6.55004 89.78C6.44004 89.92 6.34004 90.07 6.24004 90.22C6.17004 90.32 6.09004 90.43 6.02004 90.53C5.92004 90.68 5.82004 90.82 5.72004 90.97C5.65004 91.07 5.58004 91.18 5.51004 91.28C5.41004 91.43 5.32004 91.57 5.23004 91.72C5.16004 91.82 5.09004 91.93 5.03004 92.04C4.94004 92.18 4.85004 92.33 4.76004 92.48C4.70004 92.59 4.63004 92.69 4.57004 92.8C4.48004 92.95 4.40004 93.09 4.32004 93.24C4.26004 93.35 4.20004 93.45 4.14004 93.56C4.06004 93.7 3.98004 93.85 3.90004 93.99C3.84004 94.1 3.78004 94.2 3.73004 94.31C3.65004 94.45 3.58004 94.6 3.51004 94.74C3.45004 94.85 3.40004 94.96 3.34004 95.06C3.27004 95.2 3.20004 95.35 3.13004 95.49C3.08004 95.6 3.02004 95.71 2.97004 95.82C2.90004 95.96 2.84004 96.1 2.78004 96.24C2.73004 96.35 2.68004 96.46 2.63004 96.57C2.57004 96.71 2.51004 96.85 2.45004 96.99C2.40004 97.1 2.35004 97.22 2.31004 97.33C2.25004 97.47 2.20004 97.6 2.15004 97.74C2.10004 97.85 2.06004 97.97 2.02004 98.08C1.97004 98.21 1.92004 98.35 1.87004 98.49C1.83004 98.61 1.78004 98.72 1.74004 98.84C1.69004 98.97 1.65004 99.11 1.60004 99.24C1.56004 99.36 1.52004 99.48 1.48004 99.6C1.44004 99.73 1.40004 99.86 1.36004 99.99C1.32004 100.11 1.28004 100.23 1.25004 100.35C1.21004 100.48 1.18004 100.6 1.14004 100.73C1.11004 100.85 1.07004 100.98 1.04004 101.1C1.01004 101.22 0.970039 101.35 0.940039 101.47C0.910039 101.6 0.880039 101.72 0.850039 101.85C0.820039 101.97 0.790039 102.09 0.760039 102.21C0.730039 102.34 0.700039 102.47 0.670039 102.59C0.640039 102.71 0.620039 102.82 0.600039 102.94C0.570039 103.07 0.550039 103.2 0.520039 103.33C0.500039 103.44 0.480039 103.56 0.460039 103.67C0.440039 103.8 0.410039 103.94 0.390039 104.07C0.370039 104.18 0.360039 104.29 0.340039 104.4C0.320039 104.54 0.300039 104.67 0.280039 104.81C0.270039 104.91 0.250039 105.02 0.240039 105.12C0.220039 105.26 0.210039 105.4 0.190039 105.54C0.180039 105.64 0.170039 105.74 0.160039 105.84C0.150039 105.98 0.130039 106.13 0.120039 106.27C0.120039 106.36 0.100039 106.46 0.100039 106.55C0.0900391 106.7 0.0800391 106.84 0.0700391 106.99C0.0700391 107.08 0.0600391 107.17 0.0600391 107.26C0.0600391 107.41 0.0500391 107.56 0.0400391 107.71C0.0400391 107.79 0.0400391 107.88 0.0400391 107.96C0.0400391 108.12 0.0400391 108.27 0.0400391 108.43C0.0400391 108.47 0.0400391 108.51 0.0400391 108.56C0.0400391 108.6 0.0400391 108.64 0.0400391 108.68C0.0400391 108.83 0.0400391 108.99 0.0400391 109.14C0.0400391 109.18 0.0400391 109.22 0.0400391 109.26C0.0400391 109.31 0.0400391 109.36 0.0400391 109.41C0.0400391 109.51 0.0400391 109.62 0.0400391 109.72C0.0400391 109.74 0.0400391 109.76 0.0400391 109.78C0.0400391 109.86 0.0400391 109.95 0.0500391 110.03C0.0500391 110.18 0.0600391 110.33 0.0700391 110.47C0.0700391 110.55 0.0700391 110.63 0.0900391 110.71C0.0900391 110.72 0.0900391 110.74 0.0900391 110.75C0.110039 111.01 0.130039 111.28 0.160039 111.54C0.160039 111.54 0.160039 111.54 0.160039 111.55C0.160039 111.63 0.180039 111.7 0.180039 111.77C0.180039 111.83 0.190039 111.9 0.200039 111.96C0.200039 112 0.210039 112.03 0.210039 112.07C0.230039 112.22 0.250039 112.37 0.270039 112.51C0.270039 112.55 0.270039 112.59 0.280039 112.63C0.280039 112.66 0.290039 112.7 0.300039 112.73C0.320039 112.89 0.350039 113.04 0.370039 113.2C0.370039 113.23 0.370039 113.26 0.380039 113.29C0.390039 113.36 0.400039 113.42 0.410039 113.48C0.490039 113.96 0.590039 114.43 0.700039 114.9C0.730039 115 0.750039 115.11 0.780039 115.21C0.780039 115.25 0.800039 115.28 0.810039 115.32C0.840039 115.44 0.870039 115.57 0.900039 115.69C0.910039 115.74 0.920039 115.79 0.940039 115.84C0.960039 115.9 0.980039 115.97 0.990039 116.03C1.01004 116.09 1.02004 116.15 1.04004 116.21C1.07004 116.33 1.11004 116.45 1.15004 116.57C1.24004 116.87 1.34004 117.17 1.43004 117.46C1.45004 117.51 1.47004 117.57 1.49004 117.62C1.56004 117.81 1.62004 117.99 1.69004 118.17C1.70004 118.2 1.71004 118.22 1.72004 118.25C1.73004 118.28 1.74004 118.31 1.76004 118.35C1.81004 118.47 1.85004 118.59 1.90004 118.71C1.93004 118.8 1.97004 118.88 2.00004 118.97C2.04004 119.07 2.08004 119.17 2.13004 119.27C2.17004 119.36 2.21004 119.45 2.25004 119.54C2.29004 119.64 2.34004 119.73 2.38004 119.83C2.42004 119.92 2.46004 120.01 2.51004 120.1C2.55004 120.19 2.60004 120.28 2.64004 120.37C2.66004 120.42 2.69004 120.47 2.71004 120.52C2.73004 120.56 2.75004 120.61 2.78004 120.65C2.83004 120.75 2.88004 120.85 2.93004 120.95C2.95004 120.99 2.97004 121.03 2.99004 121.06C3.01004 121.11 3.04004 121.15 3.06004 121.19C3.10004 121.26 3.13004 121.32 3.17004 121.39C3.24004 121.52 3.32004 121.65 3.39004 121.78C3.42004 121.84 3.46004 121.9 3.49004 121.96C3.55004 122.06 3.61004 122.16 3.67004 122.26C3.71004 122.32 3.75004 122.38 3.78004 122.44C3.84004 122.54 3.90004 122.64 3.96004 122.73C3.99004 122.78 4.02004 122.83 4.05004 122.88C4.14004 123.02 4.23004 123.15 4.32004 123.29C4.35004 123.34 4.39004 123.39 4.42004 123.44C4.49004 123.54 4.56004 123.63 4.62004 123.73C4.65004 123.78 4.69004 123.83 4.72004 123.88C4.82004 124.01 4.91004 124.15 5.01004 124.28C5.03004 124.3 5.04004 124.32 5.06004 124.34C5.15004 124.45 5.24004 124.57 5.33004 124.68C5.36004 124.72 5.40004 124.76 5.43004 124.81C5.51004 124.91 5.60004 125.01 5.68004 125.11C5.71004 125.14 5.73004 125.17 5.76004 125.2C5.87004 125.33 5.98004 125.45 6.09004 125.57C6.12004 125.6 6.14004 125.63 6.17004 125.66C6.26004 125.76 6.35004 125.85 6.44004 125.95C6.47004 125.98 6.50004 126.02 6.53004 126.05C6.64004 126.17 6.76004 126.29 6.88004 126.4C10.52 130.04 16.02 132.66 22.35 133.16C23.48 133.25 24.64 133.27 25.82 133.22C26.53 133.19 27.24 133.13 27.96 133.05C28.2 133.02 28.44 132.99 28.68 132.96C29.16 132.89 29.65 132.81 30.14 132.71C30.63 132.61 31.12 132.51 31.61 132.38C31.94 132.3 32.28 132.21 32.61 132.11C32.93 132.02 33.25 131.92 33.58 131.82C34.97 131.38 36.36 130.83 37.77 130.16C38.14 129.98 38.52 129.79 38.89 129.6C39.27 129.4 39.65 129.2 40.02 128.98C40.65 128.62 41.28 128.24 41.9 127.83C44.2 126.33 46.48 124.49 48.7 122.26C48.84 122.12 48.98 121.98 49.12 121.83C49.16 121.78 49.21 121.74 49.25 121.69C49.35 121.59 49.44 121.49 49.54 121.38C49.59 121.33 49.64 121.27 49.69 121.22C49.78 121.12 49.88 121.01 49.97 120.91C50.01 120.86 50.06 120.81 50.1 120.76C50.22 120.63 50.34 120.49 50.45 120.36C50.47 120.34 50.48 120.32 50.5 120.3C50.64 120.14 50.77 119.98 50.9 119.82C50.93 119.78 50.96 119.75 50.99 119.71C51.09 119.58 51.2 119.45 51.3 119.32C51.34 119.27 51.37 119.23 51.41 119.19C51.51 119.06 51.62 118.93 51.72 118.79C51.75 118.75 51.77 118.72 51.8 118.68C54.43 115.25 56.7 111.21 58.65 107.05C58.81 106.71 58.97 106.37 59.12 106.03C59.71 108.79 60.55 111.53 61.73 114.14C63.15 117.29 65.06 120.24 67.6 122.78C77.26 132.44 92.77 134.17 104.63 133.93C110.74 133.8 116.3 133.14 120.31 132.52C122.32 132.21 123.96 131.9 125.11 131.67C125.68 131.56 126.13 131.46 126.45 131.39C126.61 131.36 126.73 131.33 126.81 131.31C126.85 131.3 126.89 131.29 126.91 131.29C126.92 131.29 126.93 131.29 126.94 131.29C126.94 131.29 126.94 131.29 126.95 131.29C126.95 131.29 126.95 131.29 126.94 131.23L126.96 131.29L129.68 130.64L130.33 127.92C130.33 127.92 130.33 127.92 130.33 127.91C130.33 127.91 130.33 127.89 130.33 127.88C130.33 127.86 130.34 127.82 130.35 127.78C130.37 127.69 130.4 127.57 130.43 127.42C130.5 127.11 130.6 126.66 130.71 126.08C130.94 124.93 131.25 123.3 131.56 121.28C132.19 117.26 132.85 111.71 132.97 105.6C133.21 93.74 131.48 78.23 121.82 68.57L121.83 68.59ZM59.42 76.8C58.68 79.73 57.76 83.09 56.68 86.62C54.98 92.12 52.89 97.96 50.42 103.21C47.92 108.52 45.17 112.95 42.26 115.86C39.61 118.51 36.95 120.42 34.36 121.73C33.99 121.92 33.62 122.09 33.26 122.26C32.53 122.59 31.8 122.87 31.09 123.11C30.55 123.29 30.02 123.44 29.5 123.57C28.62 123.79 27.76 123.95 26.92 124.04C25.24 124.24 23.64 124.21 22.15 124.02C21.11 123.88 20.12 123.66 19.2 123.37C19.07 123.33 18.94 123.29 18.81 123.24C17.78 122.89 16.83 122.46 15.98 121.98C15.87 121.92 15.77 121.86 15.67 121.8C14.75 121.24 13.95 120.63 13.31 119.99C13.25 119.93 13.18 119.86 13.12 119.79C13.1 119.77 13.08 119.75 13.07 119.73C13.02 119.68 12.97 119.62 12.92 119.57C12.9 119.55 12.89 119.54 12.87 119.52C12.81 119.45 12.75 119.38 12.69 119.31C12.68 119.3 12.67 119.28 12.65 119.27C12.6 119.21 12.55 119.15 12.5 119.09C12.48 119.07 12.46 119.04 12.44 119.02C12.39 118.96 12.34 118.89 12.29 118.83C12.28 118.82 12.27 118.8 12.26 118.78C12.2 118.7 12.14 118.62 12.09 118.54C12.07 118.52 12.06 118.49 12.04 118.47C12 118.41 11.95 118.35 11.91 118.28C11.89 118.25 11.87 118.23 11.85 118.2C11.79 118.12 11.74 118.03 11.69 117.95C11.69 117.94 11.67 117.92 11.67 117.91C11.62 117.83 11.57 117.75 11.52 117.68C11.5 117.65 11.48 117.62 11.46 117.59C11.42 117.52 11.38 117.46 11.34 117.39C11.32 117.36 11.31 117.33 11.29 117.3C11.24 117.21 11.19 117.12 11.14 117.03C11.12 117 11.11 116.97 11.09 116.94C11.05 116.87 11.02 116.8 10.98 116.73C10.96 116.69 10.94 116.66 10.92 116.62C10.89 116.55 10.85 116.48 10.82 116.41C10.81 116.38 10.79 116.35 10.77 116.32C10.72 116.23 10.68 116.13 10.64 116.03C10.62 115.99 10.6 115.95 10.59 115.91C10.56 115.84 10.53 115.78 10.5 115.71C10.48 115.67 10.46 115.62 10.44 115.58C10.41 115.5 10.37 115.41 10.34 115.33C10.32 115.28 10.3 115.23 10.28 115.18C10.25 115.11 10.22 115.03 10.2 114.96C10.18 114.91 10.16 114.86 10.15 114.81C10.13 114.74 10.1 114.68 10.08 114.61C10.06 114.56 10.05 114.51 10.03 114.46C10 114.36 9.96004 114.25 9.93004 114.15C9.91004 114.1 9.90004 114.05 9.88004 114C9.86004 113.93 9.84004 113.87 9.82004 113.8C9.80004 113.74 9.79004 113.69 9.77004 113.63C9.75004 113.56 9.73004 113.49 9.71004 113.43C9.69004 113.36 9.67004 113.28 9.65004 113.21C9.63004 113.13 9.61004 113.04 9.59004 112.96C9.58004 112.9 9.56004 112.84 9.55004 112.78C9.54004 112.72 9.52004 112.65 9.51004 112.59C9.50004 112.53 9.48004 112.47 9.47004 112.4C9.45004 112.33 9.44004 112.25 9.43004 112.18C9.41004 112.08 9.39004 111.99 9.38004 111.89C9.37004 111.82 9.36004 111.76 9.35004 111.7C9.34004 111.63 9.33004 111.56 9.32004 111.5C9.32004 111.44 9.30004 111.37 9.29004 111.31C9.28004 111.24 9.27004 111.18 9.26004 111.11C9.25004 111 9.23004 110.89 9.22004 110.77C9.22004 110.7 9.21004 110.63 9.20004 110.56C9.20004 110.5 9.19004 110.44 9.18004 110.38C9.18004 110.31 9.17004 110.23 9.16004 110.16C9.16004 110.1 9.16004 110.04 9.15004 109.98C9.15004 109.86 9.13004 109.73 9.13004 109.61C9.13004 109.55 9.13004 109.48 9.13004 109.42C9.13004 109.34 9.13004 109.27 9.13004 109.19C9.13004 109.13 9.13004 109.07 9.13004 109.01C9.13004 108.93 9.13004 108.85 9.13004 108.78C9.13004 108.72 9.13004 108.66 9.13004 108.6C9.13004 108.46 9.13004 108.33 9.13004 108.19C9.13004 108.13 9.13004 108.07 9.13004 108.01C9.13004 107.93 9.13004 107.85 9.14004 107.76C9.14004 107.7 9.14004 107.64 9.14004 107.59C9.15004 107.41 9.16004 107.23 9.18004 107.04C9.18004 107.02 9.18004 107 9.18004 106.98C9.18004 106.89 9.20004 106.81 9.21004 106.72C9.21004 106.66 9.22004 106.6 9.23004 106.55C9.23004 106.46 9.25004 106.38 9.26004 106.29C9.26004 106.24 9.27004 106.18 9.28004 106.13C9.30004 105.97 9.33004 105.81 9.35004 105.65C9.35004 105.6 9.37004 105.55 9.37004 105.5C9.39004 105.41 9.40004 105.32 9.42004 105.23C9.42004 105.17 9.44004 105.12 9.45004 105.06C9.47004 104.97 9.49004 104.88 9.50004 104.78C9.50004 104.74 9.52004 104.7 9.52004 104.66C9.56004 104.48 9.60004 104.3 9.64004 104.12C9.65004 104.07 9.66004 104.02 9.68004 103.96C9.70004 103.87 9.73004 103.77 9.75004 103.68C9.76004 103.63 9.78004 103.58 9.79004 103.52C9.87004 103.2 9.97004 102.88 10.07 102.56C10.08 102.51 10.1 102.46 10.12 102.41C10.15 102.31 10.19 102.21 10.22 102.11C10.23 102.07 10.25 102.02 10.27 101.98C10.34 101.78 10.41 101.59 10.48 101.39C10.49 101.35 10.51 101.32 10.52 101.28C10.56 101.18 10.6 101.07 10.64 100.97C10.66 100.93 10.67 100.88 10.69 100.84C10.74 100.72 10.79 100.6 10.84 100.47C10.88 100.39 10.91 100.3 10.95 100.22C11 100.12 11.04 100.01 11.09 99.91C11.12 99.84 11.16 99.77 11.19 99.7C11.24 99.58 11.3 99.47 11.36 99.35C11.42 99.22 11.48 99.1 11.55 98.97C11.58 98.92 11.6 98.87 11.63 98.83C11.69 98.71 11.76 98.58 11.83 98.46C11.87 98.38 11.91 98.31 11.96 98.23C12.01 98.13 12.07 98.03 12.12 97.94C12.17 97.86 12.22 97.77 12.26 97.69C12.31 97.6 12.37 97.51 12.42 97.42C12.47 97.33 12.52 97.25 12.58 97.16C12.64 97.07 12.69 96.98 12.75 96.89C12.8 96.8 12.86 96.72 12.91 96.63C12.97 96.54 13.03 96.45 13.09 96.35C13.15 96.27 13.2 96.18 13.26 96.1C13.33 96 13.4 95.9 13.46 95.8C13.51 95.72 13.57 95.65 13.62 95.57C13.73 95.42 13.84 95.27 13.95 95.11C14 95.04 14.05 94.97 14.11 94.9C14.21 94.77 14.3 94.64 14.4 94.52C14.45 94.45 14.51 94.38 14.56 94.31C14.65 94.2 14.73 94.09 14.82 93.98C14.88 93.91 14.94 93.83 15 93.76C15.09 93.65 15.17 93.55 15.26 93.44C15.32 93.37 15.39 93.29 15.45 93.22C15.54 93.11 15.63 93.01 15.73 92.9C15.79 92.83 15.86 92.75 15.92 92.68C16.02 92.57 16.12 92.46 16.22 92.35C16.28 92.28 16.34 92.21 16.41 92.15C16.52 92.03 16.64 91.91 16.75 91.78C16.8 91.72 16.86 91.67 16.91 91.61C17.08 91.43 17.26 91.25 17.44 91.07C17.63 90.88 17.83 90.69 18.03 90.5C20.93 87.81 25.13 85.26 30.1 82.93C30.45 82.77 30.8 82.61 31.15 82.45C31.29 82.39 31.43 82.33 31.57 82.26C31.79 82.16 32 82.07 32.22 81.97C32.38 81.9 32.54 81.83 32.7 81.76C32.9 81.67 33.1 81.59 33.31 81.5C33.48 81.43 33.64 81.36 33.81 81.29C34.01 81.21 34.21 81.12 34.41 81.04C34.58 80.97 34.74 80.9 34.91 80.84C35.12 80.76 35.33 80.67 35.54 80.59C35.7 80.53 35.86 80.46 36.02 80.4C36.25 80.31 36.48 80.22 36.7 80.14C36.84 80.08 36.98 80.03 37.13 79.98C37.4 79.88 37.67 79.78 37.94 79.68C38.04 79.64 38.14 79.6 38.25 79.57C38.63 79.43 39.01 79.29 39.39 79.16C39.88 78.98 40.37 78.81 40.86 78.64C41.01 78.59 41.16 78.54 41.31 78.48C41.44 78.43 41.58 78.39 41.71 78.34C41.96 78.25 42.22 78.17 42.47 78.08C42.54 78.06 42.62 78.03 42.69 78.01C42.96 77.92 43.24 77.83 43.51 77.74C43.61 77.71 43.71 77.68 43.8 77.64C43.98 77.58 44.17 77.52 44.35 77.46C44.65 77.37 44.94 77.27 45.23 77.18C45.33 77.15 45.44 77.11 45.54 77.08C45.94 76.95 46.34 76.83 46.74 76.71C47.55 76.46 48.34 76.23 49.13 76C53.27 74.8 57.09 73.84 60.13 73.14C59.9 74.27 59.66 75.5 59.43 76.82L59.42 76.8ZM62.8 61.26C62.8 61.26 62.8 61.27 62.8 61.28C62.8 61.28 62.8 61.28 62.8 61.3C62.76 61.47 62.72 61.64 62.69 61.8C62.57 62.35 62.46 62.86 62.37 63.32C62.09 63.38 61.8 63.44 61.49 63.51C61.11 63.59 60.71 63.68 60.29 63.77C60.15 63.8 60.01 63.83 59.86 63.86C59.64 63.91 59.42 63.96 59.2 64.01C51.54 65.08 43.98 64.21 38.97 61.93C35.85 60.5 34.31 58.82 33.77 57.33C33.29 56.01 33.23 53.79 35.51 50.28C36.71 48.44 38.39 46.34 40.66 43.96C40.73 43.88 40.81 43.81 40.88 43.73C40.96 43.65 41.03 43.57 41.11 43.49C41.25 43.35 41.39 43.2 41.54 43.06C41.63 42.97 41.71 42.88 41.81 42.79C44.48 40.12 46.83 38.16 48.87 36.78C52.5 34.33 54.75 34.38 56.06 34.84C56.47 34.98 56.89 35.2 57.32 35.51C58.45 36.32 59.63 37.75 60.68 40.04C63.1 45.32 63.97 53.38 62.82 61.26H62.8ZM75.72 47.69C76.41 45.41 77.18 43.07 78 40.74C78.09 40.48 78.18 40.22 78.28 39.96C78.33 39.81 78.39 39.67 78.44 39.52C78.53 39.26 78.63 39.01 78.72 38.75C78.77 38.61 78.82 38.47 78.87 38.33C79 37.98 79.14 37.63 79.27 37.28C79.3 37.21 79.33 37.14 79.35 37.07C79.49 36.72 79.62 36.37 79.76 36.03C79.81 35.9 79.87 35.77 79.92 35.63C80.02 35.38 80.13 35.12 80.23 34.87C80.29 34.73 80.35 34.58 80.41 34.44C80.51 34.2 80.62 33.95 80.72 33.71C80.78 33.57 80.84 33.43 80.9 33.29C81.01 33.03 81.12 32.78 81.24 32.52C81.29 32.4 81.35 32.28 81.4 32.16C81.57 31.79 81.74 31.42 81.91 31.05C84.39 25.74 87.14 21.31 90.04 18.4C91.59 16.85 93.15 15.55 94.68 14.48C94.98 14.27 95.28 14.07 95.58 13.88C97.98 12.34 100.33 11.33 102.58 10.75C102.72 10.71 102.86 10.68 103 10.64C104.68 10.24 106.3 10.06 107.83 10.08C112.77 10.12 116.78 12.06 118.99 14.27C119.06 14.34 119.13 14.41 119.2 14.49C119.22 14.51 119.24 14.54 119.27 14.56C119.32 14.61 119.36 14.66 119.41 14.72C119.44 14.75 119.47 14.78 119.49 14.81C119.53 14.86 119.57 14.9 119.61 14.95C119.64 14.98 119.67 15.02 119.7 15.06C119.74 15.11 119.78 15.15 119.81 15.2C119.84 15.24 119.87 15.28 119.9 15.32C119.94 15.37 119.97 15.41 120.01 15.46C120.04 15.5 120.07 15.54 120.1 15.59C120.13 15.64 120.17 15.68 120.2 15.73C120.23 15.77 120.26 15.82 120.3 15.87C120.33 15.92 120.37 15.96 120.4 16.01C120.43 16.06 120.46 16.11 120.5 16.15C120.53 16.2 120.56 16.24 120.59 16.29C120.62 16.34 120.66 16.39 120.69 16.44C120.72 16.49 120.75 16.53 120.78 16.58C120.81 16.63 120.84 16.69 120.87 16.74C120.9 16.79 120.93 16.84 120.95 16.88C120.98 16.94 121.01 16.99 121.04 17.05C121.07 17.1 121.09 17.15 121.12 17.19C121.15 17.25 121.18 17.31 121.21 17.37C121.23 17.42 121.26 17.47 121.29 17.52C121.32 17.58 121.35 17.64 121.38 17.71C121.4 17.76 121.43 17.81 121.45 17.86C121.48 17.92 121.51 17.99 121.54 18.05C121.56 18.1 121.59 18.15 121.61 18.2C121.64 18.27 121.67 18.34 121.7 18.4C121.72 18.45 121.74 18.5 121.76 18.55C121.79 18.62 121.82 18.69 121.85 18.76C121.87 18.81 121.89 18.86 121.91 18.9C121.94 18.97 121.97 19.05 122 19.12C122.02 19.17 122.03 19.21 122.05 19.26C122.08 19.34 122.11 19.41 122.13 19.49C122.15 19.54 122.16 19.58 122.18 19.63C122.21 19.71 122.23 19.79 122.26 19.87C122.27 19.92 122.29 19.96 122.3 20.01C122.33 20.09 122.35 20.18 122.38 20.26C122.39 20.3 122.41 20.35 122.42 20.39C122.45 20.48 122.47 20.56 122.5 20.65C122.51 20.69 122.52 20.74 122.53 20.78C122.55 20.87 122.58 20.96 122.6 21.05C122.61 21.09 122.62 21.13 122.63 21.17C122.65 21.27 122.68 21.36 122.7 21.46C122.7 21.5 122.72 21.54 122.73 21.58C122.75 21.68 122.77 21.78 122.79 21.88C122.79 21.92 122.8 21.95 122.81 21.99C122.83 22.09 122.85 22.2 122.87 22.3C122.87 22.33 122.88 22.37 122.89 22.4C122.91 22.51 122.93 22.62 122.95 22.73C122.95 22.76 122.95 22.78 122.96 22.81C122.98 22.93 122.99 23.05 123.01 23.16C123.01 23.18 123.01 23.2 123.01 23.22C123.03 23.35 123.04 23.47 123.05 23.6C123.05 23.61 123.05 23.62 123.05 23.63C123.11 24.21 123.14 24.8 123.15 25.41C123.15 25.45 123.15 25.49 123.15 25.54C123.15 25.64 123.15 25.74 123.15 25.84C123.15 25.88 123.15 25.93 123.15 25.97C123.15 26.09 123.15 26.2 123.14 26.32C123.14 26.35 123.14 26.39 123.14 26.42C123.14 26.55 123.13 26.67 123.12 26.8C123.12 26.83 123.12 26.86 123.12 26.89C123.11 27.03 123.1 27.17 123.09 27.31C123.09 27.36 123.08 27.42 123.08 27.47C123.07 27.57 123.06 27.68 123.05 27.78C123.05 27.84 123.04 27.91 123.03 27.97C123.03 28.04 123.01 28.1 123 28.16C122.99 28.25 122.98 28.34 122.96 28.43C122.94 28.58 122.91 28.73 122.89 28.88C122.83 29.22 122.76 29.57 122.69 29.91C122.65 30.08 122.61 30.26 122.57 30.43C122.53 30.6 122.48 30.78 122.43 30.96C122.38 31.14 122.33 31.31 122.28 31.49L122.25 31.59C122.22 31.67 122.2 31.76 122.17 31.84C122.13 31.96 122.09 32.09 122.05 32.21C122.03 32.27 122.01 32.33 121.99 32.4C121.96 32.48 121.93 32.56 121.91 32.64C121.86 32.77 121.81 32.9 121.76 33.03C121.74 33.07 121.73 33.12 121.71 33.16C121.66 33.3 121.6 33.43 121.54 33.57C121.51 33.63 121.49 33.69 121.46 33.76C121.42 33.85 121.38 33.94 121.34 34.03C121.29 34.14 121.25 34.24 121.2 34.35C121.16 34.44 121.12 34.53 121.07 34.62C121.04 34.68 121.01 34.75 120.98 34.81C120.88 35.01 120.78 35.22 120.67 35.42C120.6 35.56 120.52 35.71 120.44 35.85C120.39 35.94 120.35 36.02 120.3 36.11C120.26 36.18 120.22 36.26 120.18 36.33C120.13 36.42 120.08 36.51 120.02 36.6C119.97 36.68 119.93 36.76 119.88 36.84C119.83 36.93 119.77 37.02 119.72 37.1C119.67 37.19 119.61 37.27 119.56 37.35C119.51 37.43 119.46 37.52 119.4 37.6C119.34 37.7 119.27 37.8 119.21 37.9C119.16 37.97 119.12 38.04 119.07 38.11C118.96 38.27 118.85 38.43 118.74 38.6C118.69 38.67 118.64 38.74 118.6 38.8C118.52 38.91 118.45 39.01 118.37 39.12C118.32 39.19 118.26 39.26 118.21 39.34C118.13 39.44 118.05 39.55 117.97 39.65C117.92 39.72 117.86 39.79 117.81 39.86C117.72 39.98 117.63 40.09 117.53 40.21C117.48 40.27 117.44 40.32 117.4 40.38C117.26 40.55 117.12 40.72 116.98 40.89C116.95 40.93 116.91 40.97 116.88 41.01C116.77 41.15 116.65 41.28 116.53 41.42C116.48 41.48 116.42 41.54 116.37 41.6C116.27 41.72 116.16 41.83 116.06 41.95C116 42.01 115.95 42.08 115.89 42.14C115.78 42.26 115.66 42.38 115.55 42.5C115.5 42.55 115.45 42.61 115.39 42.66C115.22 42.83 115.05 43.01 114.88 43.18C113.75 44.31 112.4 45.41 110.86 46.48C110.46 46.76 110.05 47.03 109.62 47.31C109.5 47.38 109.39 47.46 109.27 47.54C108.86 47.8 108.44 48.05 108.01 48.31C107 48.91 105.94 49.49 104.82 50.07C104.4 50.29 103.98 50.5 103.55 50.71C103.12 50.92 102.68 51.13 102.24 51.34C101.93 51.49 101.62 51.63 101.3 51.77C101.18 51.83 101.06 51.88 100.93 51.93C100.73 52.02 100.53 52.11 100.34 52.2C100.21 52.26 100.08 52.31 99.94 52.37C99.74 52.46 99.54 52.54 99.34 52.63C99.23 52.68 99.11 52.73 99 52.78C98.78 52.87 98.56 52.97 98.34 53.06C98.21 53.11 98.09 53.16 97.96 53.22C97.89 53.25 97.83 53.28 97.76 53.3C97.37 53.46 96.97 53.62 96.57 53.78C96.48 53.82 96.39 53.85 96.3 53.89C95.84 54.07 95.39 54.25 94.93 54.42C94.56 54.56 94.2 54.7 93.83 54.83C93.69 54.88 93.56 54.93 93.43 54.98C93.2 55.06 92.97 55.15 92.74 55.23C92.54 55.3 92.34 55.37 92.14 55.44C92.01 55.49 91.88 55.53 91.75 55.58C91.53 55.66 91.31 55.73 91.09 55.81C90.95 55.86 90.81 55.91 90.67 55.96C90.5 56.02 90.33 56.08 90.16 56.13C89.75 56.27 89.34 56.4 88.94 56.54C87.84 56.9 86.75 57.25 85.67 57.58C85.38 57.67 85.08 57.76 84.79 57.85C84.7 57.88 84.62 57.9 84.53 57.93C84.32 57.99 84.12 58.05 83.91 58.11C83.82 58.14 83.72 58.17 83.63 58.19C83.43 58.25 83.23 58.31 83.04 58.36C82.95 58.39 82.87 58.41 82.78 58.43C82.57 58.49 82.37 58.55 82.16 58.61C82.09 58.63 82.02 58.65 81.95 58.67C81.72 58.74 81.5 58.8 81.27 58.86C81.23 58.87 81.18 58.88 81.14 58.9C80.88 58.97 80.61 59.05 80.35 59.12C80.35 59.12 80.35 59.12 80.34 59.12C79.98 59.22 79.61 59.32 79.26 59.42C79.1 59.46 78.93 59.51 78.77 59.55C78.6 59.6 78.43 59.64 78.26 59.69C77.68 59.84 77.11 59.99 76.55 60.13C76.24 60.21 75.93 60.29 75.63 60.36C75.47 60.4 75.3 60.44 75.14 60.48C74.89 60.54 74.65 60.6 74.41 60.66C73.81 60.81 73.23 60.95 72.67 61.08C72.49 61.11 72.3 61.15 72.13 61.18C72.96 57.54 74.16 52.76 75.72 47.62V47.69ZM67.68 102.35C66.9 97.68 66.86 92.66 67.21 87.86C67.45 84.56 67.87 81.43 68.34 78.68C68.74 77.11 69.08 75.66 69.38 74.37C69.67 73.1 69.92 71.98 70.11 71.05C71.04 70.86 72.15 70.61 73.42 70.32C73.78 70.24 74.15 70.15 74.54 70.06C74.56 70.06 74.58 70.06 74.6 70.06C75.49 69.9 76.45 69.74 77.45 69.59C77.52 69.58 77.59 69.57 77.66 69.56C80.51 69.13 83.76 68.74 87.18 68.54C91.84 68.26 96.7 68.31 101.2 68.99C90.81 83.04 82.22 91.48 67.67 102.37L67.68 102.35ZM74.04 116.39C72.66 115.01 71.5 113.38 70.56 111.54C88.3 98.51 98.02 88.98 110.52 71.65C112.42 72.57 114.06 73.69 115.4 75.03C116.83 76.46 118.05 78.12 119.07 79.97C105.75 99.12 96.73 107.49 78.97 120.07C77.13 119.05 75.47 117.83 74.04 116.4V116.39ZM123.89 105.43C123.78 111.03 123.17 116.16 122.59 119.9C122.4 121.11 122.22 122.16 122.06 123.04C121.19 123.2 120.13 123.39 118.92 123.58C115.18 124.16 110.05 124.77 104.45 124.88C99.38 124.98 94.22 124.68 89.45 123.72C103.14 113.64 111.96 105.22 122.74 90.5C123.68 95.25 123.99 100.39 123.89 105.44V105.43Z" fill="#009FE3"/>
<g style="mix-blend-mode:multiply" opacity="0.15">
<path d="M79.2501 59.67C79.2501 59.55 79.2501 59.49 79.2501 59.49C79.0901 59.53 78.9201 59.58 78.7601 59.62C78.5901 59.67 78.4201 59.71 78.2501 59.76C77.6701 59.91 77.1001 60.06 76.5401 60.2C76.2301 60.28 75.9201 60.36 75.6201 60.43C75.4601 60.47 75.2901 60.51 75.1301 60.55C74.8801 60.61 74.6401 60.67 74.4001 60.73C73.8001 60.88 73.2201 61.02 72.6601 61.15C72.4801 61.18 72.2901 61.22 72.1201 61.25C72.9501 57.61 74.1501 52.83 75.7101 47.69C76.3601 45.56 77.0601 43.38 77.8301 41.21C77.4701 39.93 77.0601 38.7 76.5901 37.54C76.4101 37.1 76.2301 36.67 76.0401 36.25C75.0701 34.14 73.8301 32.11 72.2601 30.39C71.2801 32.69 70.3701 35.03 69.5401 37.36C69.5201 37.41 69.5001 37.47 69.4801 37.52C69.4801 37.52 69.4801 37.52 69.4801 37.53C72.1801 44.22 72.9901 52.91 71.9701 61.28C71.9701 61.29 71.9701 61.3 71.9701 61.32C71.9001 61.87 71.8301 62.42 71.7401 62.97C71.7101 63.14 71.6901 63.3 71.6601 63.46C71.4101 65 71.1001 66.51 70.7201 68L70.6101 68.54V68.6C70.6101 68.6 70.5801 68.68 70.5701 68.73C70.5701 68.76 70.5601 68.8 70.5501 68.84C70.5001 69.09 70.4401 69.4 70.3701 69.77C70.3001 70.12 70.2201 70.51 70.1201 70.95L70.1001 71.05C71.0301 70.86 72.1401 70.61 73.4101 70.32C73.7701 70.24 74.1401 70.15 74.5301 70.06C74.5501 70.06 74.5701 70.06 74.5901 70.06C75.4801 69.9 76.4401 69.74 77.4401 69.59C77.4601 69.59 77.4901 69.59 77.5101 69.58C77.5601 69.58 77.6001 69.57 77.6501 69.56C79.2701 64.44 79.2701 60.55 79.2501 59.68V59.67ZM73.3401 67.19C73.3401 67.19 73.3401 67.19 73.3401 67.2V67.19ZM67.2001 87.86C66.8501 92.65 66.9001 97.68 67.6701 102.35C67.2101 103.45 66.7401 104.54 66.2401 105.62C66.0801 105.96 65.9301 106.3 65.7701 106.64C64.5501 109.24 63.2001 111.79 61.7201 114.18C60.5401 111.57 59.7001 108.82 59.1101 106.07C61.6101 100.59 63.6901 94.71 65.3601 89.3C66.5401 85.46 67.5301 81.82 68.3201 78.68C67.8501 81.43 67.4301 84.56 67.1901 87.86H67.2001Z" fill="black"/>
</g>
<path d="M223.041 87.3407C229.491 83.9907 235.441 78.4107 235.441 68.0007V67.7507C235.441 61.9207 233.461 57.2107 229.611 53.3707C224.651 48.4107 216.841 45.6807 206.921 45.6807H167.991V132.471H208.161C227.501 132.471 240.271 124.161 240.271 108.661V108.411C240.271 96.6307 233.201 90.8007 223.041 87.3307V87.3407ZM182.991 59.1907H204.941C214.741 59.1907 220.191 63.4107 220.191 70.2307V70.4807C220.191 78.4207 213.621 82.2607 203.821 82.2607H182.991V59.2007V59.1907ZM225.021 107.051C225.021 114.861 218.701 118.951 208.281 118.951H182.991V95.1407H207.171C219.201 95.1407 225.021 99.4807 225.021 106.801V107.051ZM295.451 67.0007H310.581V132.471H295.451V122.301C291.231 128.501 285.161 133.831 274.991 133.831C260.231 133.831 251.681 123.911 251.681 108.661V67.0007H266.681V104.201C266.681 114.371 271.761 120.071 280.691 120.071C289.621 120.071 295.451 114.121 295.451 103.951V67.0007ZM424.361 90.6807V132.471H409.361V95.2707C409.361 84.8507 404.531 79.2707 396.091 79.2707C387.651 79.2707 382.081 84.9707 382.081 95.5107V132.461H367.081V95.1407C367.081 84.9707 362.121 79.2707 353.811 79.2707C345.501 79.2707 339.801 85.4707 339.801 95.5107V132.461H324.801V66.9907H339.801V76.9107C344.021 71.0807 349.721 65.6307 359.761 65.6307C369.181 65.6307 375.881 70.2207 379.351 77.1607C384.561 70.2207 391.501 65.6307 401.421 65.6307C415.681 65.6307 424.361 74.6807 424.361 90.6807ZM475.761 65.6307C465.101 65.6307 458.281 71.0907 453.441 77.9107V41.9507H438.441V132.461H453.441V122.291C458.031 128.371 464.851 133.821 475.761 133.821C491.261 133.821 506.141 121.541 506.141 99.8507V99.6007C506.141 77.7807 491.141 65.6307 475.761 65.6307ZM490.891 99.8507C490.891 112.751 482.461 120.811 472.171 120.811C461.881 120.811 453.081 112.381 453.081 99.8507V99.6007C453.081 87.0807 462.011 78.6507 472.171 78.6507C482.331 78.6507 490.891 86.9607 490.891 99.6007V99.8507ZM517.541 41.9507H532.541V132.461H517.541V41.9507ZM575.561 65.6307C556.841 65.6307 543.571 81.0107 543.571 99.7307V99.9807C543.571 120.191 558.201 133.951 577.171 133.951C589.201 133.951 597.751 129.111 603.951 121.671L595.151 113.861C589.941 118.941 584.731 121.671 577.421 121.671C567.751 121.671 560.181 115.721 558.571 105.051H606.681C606.801 103.561 606.931 102.201 606.931 100.831C606.931 81.9807 596.391 65.6207 575.561 65.6207V65.6307ZM558.451 95.1407C559.811 84.9707 566.261 77.9107 575.441 77.9107C585.361 77.9107 591.061 85.4707 592.051 95.1407H558.451ZM654.871 65.6307C644.211 65.6307 637.391 71.0907 632.551 77.9107V41.9507H617.551V132.461H632.551V122.291C637.141 128.371 643.961 133.821 654.871 133.821C670.371 133.821 685.251 121.541 685.251 99.8507V99.6007C685.251 77.7807 670.251 65.6307 654.871 65.6307ZM670.001 99.8507C670.001 112.751 661.571 120.811 651.281 120.811C640.991 120.811 632.191 112.381 632.191 99.8507V99.6007C632.191 87.0807 641.121 78.6507 651.281 78.6507C661.441 78.6507 670.001 86.9607 670.001 99.6007V99.8507ZM724.521 65.6307C705.801 65.6307 692.531 81.0107 692.531 99.7307V99.9807C692.531 120.191 707.161 133.951 726.131 133.951C738.161 133.951 746.711 129.111 752.911 121.671L744.111 113.861C738.901 118.941 733.691 121.671 726.381 121.671C716.711 121.671 709.141 115.721 707.531 105.051H755.641C755.761 103.561 755.891 102.201 755.891 100.831C755.891 81.9807 745.351 65.6207 724.521 65.6207V65.6307ZM707.411 95.1407C708.771 84.9707 715.221 77.9107 724.401 77.9107C734.321 77.9107 740.021 85.4707 741.021 95.1407H707.421H707.411ZM826.301 100.841C826.301 81.9907 815.761 65.6307 794.931 65.6307C776.211 65.6307 762.941 81.0107 762.941 99.7307V99.9807C762.941 120.191 777.571 133.951 796.541 133.951C808.571 133.951 817.121 129.111 823.321 121.671L814.521 113.861C809.311 118.941 804.101 121.671 796.791 121.671C787.121 121.671 779.551 115.721 777.941 105.051H826.051C826.171 103.561 826.301 102.201 826.301 100.831V100.841ZM777.821 95.1407C779.181 84.9707 785.631 77.9107 794.811 77.9107C804.731 77.9107 810.431 85.4707 811.431 95.1407H777.831H777.821Z" fill="white"/>
</g>
<defs>
<clipPath id="clip0_1_396">
<rect width="827" height="134" fill="white"/>
</clipPath>
</defs>
</svg>
