<?xml version="1.0" encoding="UTF-8"?><svg id="Layer_2" xmlns="http://www.w3.org/2000/svg" viewBox="0 0 179.97 58.13"><defs><style>.cls-1{fill:#002664;}.cls-2{fill:#db0041;}</style></defs><g id="Layer_1-2"><path class="cls-1" d="m32.47,1.89h.01c0,11.76-6.28,22.07-15.65,27.77-4.92,2.99-10.68,4.72-16.84,4.72v-10.83c.37,0,.75-.01,1.12-.03,14.13-.43,26.2-9.25,31.35-21.63"/><path class="cls-1" d="m31.35,36.5c-11.43.57-20.54,10.03-20.54,21.63H0c5.17-12.38,17.22-21.2,31.35-21.63"/><path class="cls-1" d="m48.2,47.31V12.82h6.76v4.79c1.67-3.42,5.7-5.55,10.1-5.55h2.51v7.06h-3.04c-5.77,0-9.12,3.95-9.12,9.72v18.46h-7.22Z"/><path class="cls-1" d="m123.55,47.77c-7.6,0-12.61-4.03-12.61-12.31v-16.33h-6.08v-6.3c4.82,0,7.98-2.05,7.98-8.2v-.15h5.32v8.36h10.41v6.3h-10.41v15.65c0,4.63,3.04,6.3,6.3,6.3h4.1v6.69h-5.01Z"/><path class="cls-1" d="m83.99,47.37c-2.02,0-4.01-.39-5.98-1.16-1.96-.78-3.73-1.9-5.29-3.38-1.56-1.48-2.82-3.29-3.77-5.43-.95-2.14-1.43-4.57-1.43-7.3s.47-5.22,1.4-7.36c.93-2.14,2.17-3.95,3.72-5.43,1.54-1.48,3.32-2.6,5.32-3.38,2-.78,4.05-1.17,6.15-1.17,2.21,0,4.25.41,6.12,1.24,1.87.82,3.41,1.95,4.63,3.37v-4.55h7.41v34.49h-7.41v-4.9c-1.22,1.54-2.78,2.75-4.69,3.63-1.91.88-3.97,1.32-6.18,1.32m11.24-17.31c0-5.91-4.36-10.27-10.13-10.34-5.84.07-10.13,4.43-10.13,10.34s4.29,10.27,10.13,10.27,10.13-4.36,10.13-10.27"/><path class="cls-1" d="m179.97,30.07c0,10.25-7.99,18.08-18.53,18.08s-18.53-7.82-18.53-18.08,8.04-18.08,18.53-18.08,18.53,7.82,18.53,18.08m-7.6,0c0-6.38-4.71-11.09-10.93-11.17-6.31.07-10.95,4.79-10.95,11.17s4.64,11.09,10.95,11.09,10.93-4.71,10.93-11.09"/><path class="cls-1" d="m131.73,12.82h7.22v34.49h-7.22V12.82Zm7.99-8.36c0-2.55-1.88-4.44-4.38-4.47-2.52.03-4.38,1.91-4.38,4.47s1.85,4.44,4.38,4.44,4.38-1.88,4.38-4.44"/><path class="cls-2" d="m32.47,25.65v10.81c-.37,0-.75,0-1.12.03-14.13.43-26.18,9.25-31.35,21.63,0-12.24,6.81-22.93,16.84-28.46,4.64-2.55,9.96-4.01,15.63-4.01"/><path class="cls-2" d="m21.66,1.89h10.81C27.32,14.27,15.25,23.09,1.12,23.52c11.43-.57,20.54-10.03,20.54-21.63"/></g></svg>